<?xml version="1.0" encoding="utf-8"?>
<!-- Generator: Adobe Illustrator 19.2.1, SVG Export Plug-In . SVG Version: 6.00 Build 0)  -->
<svg version="1.1" baseProfile="tiny" id="Слой_1"
	 xmlns="http://www.w3.org/2000/svg" xmlns:xlink="http://www.w3.org/1999/xlink" x="0px" y="0px" viewBox="0 0 11 11"
	 xml:space="preserve">
<g transform="translate(0 0)">
	<path fill="#222222" d="M3.1,3.7c0.1,0,0.2,0,0.3,0.1L6,6.3l2.6-2.4C8.7,3.8,8.8,3.8,9,3.8c0.1,0,0.3,0.1,0.3,0.2
		c0.1,0.1,0.1,0.3,0.1,0.4c0,0.1-0.1,0.3-0.2,0.4L6.3,7.5c-0.2,0.2-0.4,0.2-0.6,0L2.7,4.7C2.6,4.6,2.6,4.5,2.6,4.3
		c0-0.1,0-0.3,0.1-0.4C2.8,3.8,2.9,3.7,3.1,3.7L3.1,3.7z"/>
</g>
</svg>
